<?xml version="1.0" standalone="no"?>
<!DOCTYPE svg PUBLIC "-//W3C//DTD SVG 20010904//EN"
 "http://www.w3.org/TR/2001/REC-SVG-20010904/DTD/svg10.dtd">
<svg version="1.0" xmlns="http://www.w3.org/2000/svg"
 width="260.000000pt" height="260.000000pt" viewBox="0 0 260.000000 260.000000"
 preserveAspectRatio="xMidYMid meet">
<metadata>
Created by potrace 1.11, written by Peter Selinger 2001-2013
</metadata>
<g transform="translate(0.000000,260.000000) scale(0.100000,-0.100000)"
fill="#000000" stroke="none">
<path d="M230 1245 l0 -595 35 0 35 0 0 523 0 522 57 -100 c32 -55 116 -203
188 -330 128 -227 130 -230 165 -233 l35 -3 89 158 c49 87 132 234 185 326
l96 169 3 -516 2 -516 35 0 35 0 0 596 0 595 -37 -3 c-40 -3 -14 38 -340 -541
l-100 -178 -204 360 -204 361 -37 0 -38 0 0 -595z"/>
<path d="M1570 1245 l0 -595 35 0 35 0 0 280 0 280 330 0 330 0 0 35 0 35
-330 0 -330 0 0 245 0 245 410 0 410 0 0 35 0 35 -445 0 -445 0 0 -595z"/>
</g>
</svg>
